<svg xmlns="http://www.w3.org/2000/svg" xmlns:xlink="http://www.w3.org/1999/xlink" viewBox="0 0 200 200.01"><defs><style>.cls-1{mask:url(#mask);}.cls-2{mix-blend-mode:multiply;fill:url(#linear-gradient);}.cls-3{isolation:isolate;}.cls-4{fill:url(#radial-gradient);}.cls-5{mask:url(#mask-2);}.cls-6{opacity:0.45;mix-blend-mode:screen;fill:url(#linear-gradient-2);}.cls-7{fill:#fff;}.cls-8{fill:#1a1a1a;}.cls-9{filter:url(#luminosity-noclip-2);}.cls-10{filter:url(#luminosity-noclip);}</style><filter id="luminosity-noclip" x="177.87" y="-8387" width="123.12" height="32766" filterUnits="userSpaceOnUse" color-interpolation-filters="sRGB"><feFlood flood-color="#fff" result="bg"/><feBlend in="SourceGraphic" in2="bg"/></filter><mask id="mask" x="177.87" y="-8387" width="123.12" height="32766" maskUnits="userSpaceOnUse"><g class="cls-10"/></mask><linearGradient id="linear-gradient" x1="412.88" y1="137.32" x2="378.53" y2="93.56" gradientTransform="matrix(1.68, -0.67, 0.78, 1.96, -519.99, 160.02)" gradientUnits="userSpaceOnUse"><stop offset="0"/><stop offset="1" stop-color="#fff"/></linearGradient><radialGradient id="radial-gradient" cx="274" cy="195" r="100" gradientUnits="userSpaceOnUse"><stop offset="0.86" stop-color="#171717"/><stop offset="0.91" stop-color="#191919"/><stop offset="0.93" stop-color="#212121"/><stop offset="0.95" stop-color="#2f2f2f"/><stop offset="0.97" stop-color="#434343"/><stop offset="0.98" stop-color="#5c5c5c"/><stop offset="1" stop-color="#7b7b7b"/><stop offset="1" stop-color="#878787"/></radialGradient><filter id="luminosity-noclip-2" x="177.87" y="93.63" width="123.12" height="63.99" filterUnits="userSpaceOnUse" color-interpolation-filters="sRGB"><feFlood flood-color="#fff" result="bg"/><feBlend in="SourceGraphic" in2="bg"/></filter><mask id="mask-2" x="3.87" y="-1.37" width="123.12" height="63.99" maskUnits="userSpaceOnUse"><g class="cls-9"><g transform="translate(-174 -94.99)"><g class="cls-1"><path class="cls-2" d="M300.42,101.34c4.58,11.51-19,31.7-52.7,45.11s-64.7,15-69.28,3.45,19-31.7,52.7-45.11S295.84,89.84,300.42,101.34Z"/></g></g></g></mask><linearGradient id="linear-gradient-2" x1="410.97" y1="135.39" x2="381.63" y2="97.99" xlink:href="#linear-gradient"/></defs><g class="cls-3"><g id="magic_8_ball" data-name="magic 8 ball"><path class="cls-4" d="M374,195A100,100,0,1,1,274,95,100,100,0,0,1,374,195Z" transform="translate(-174 -94.99)"/><g class="cls-5"><path class="cls-6" d="M292.81,101.63c6.17,10.74-11.4,31.41-45.09,44.82s-56.57,11-62.47,4.84c-2.51-2.6,17.64-36.11,51.63-48.75C261.54,93.36,287.24,92,292.81,101.63Z" transform="translate(-174 -94.99)"/></g><path class="cls-7" d="M321.54,195.33a48.65,48.65,0,1,1-48.65-48.64A48.65,48.65,0,0,1,321.54,195.33Z" transform="translate(-174 -94.99)"/><path class="cls-8" d="M289.73,183.06a11.67,11.67,0,0,1-2.07,6.84,13.44,13.44,0,0,1-5.63,4.58,15.49,15.49,0,0,1,6.74,4.89,11.84,11.84,0,0,1,2.51,7.45q0,7.14-4.76,11a18.53,18.53,0,0,1-12.12,3.91q-7.8,0-12.74-3.91t-4.94-11a11.62,11.62,0,0,1,2.58-7.45,15.92,15.92,0,0,1,7-4.89,13.74,13.74,0,0,1-5.87-4.58,11.38,11.38,0,0,1-2.15-6.84q0-6.78,4.43-10.37t11.6-3.59c4.53,0,8.22,1.2,11.1,3.61S289.73,178.56,289.73,183.06Zm-7,23.45a8.33,8.33,0,0,0-2.42-6.17,8.2,8.2,0,0,0-6-2.41,9.11,9.11,0,0,0-6.5,2.41,8.08,8.08,0,0,0-2.57,6.17,7.85,7.85,0,0,0,2.55,6.13A9.44,9.44,0,0,0,274.4,215a8.26,8.26,0,0,0,6-2.31A8.13,8.13,0,0,0,282.77,206.51Zm-1.58-23.13a7.56,7.56,0,0,0-1.93-5.37,6.47,6.47,0,0,0-4.93-2,7.5,7.5,0,0,0-5.43,2,7.22,7.22,0,0,0-2,5.44A7.56,7.56,0,0,0,269,189a7.31,7.31,0,0,0,5.44,2.12,6.24,6.24,0,0,0,4.87-2.12A8,8,0,0,0,281.19,183.38Z" transform="translate(-174 -94.99)"/></g></g></svg>